<?xml version="1.0" encoding="UTF-8" standalone="no"?>
<!DOCTYPE svg PUBLIC "-//W3C//DTD SVG 1.1//EN"
 "http://www.w3.org/Graphics/SVG/1.1/DTD/svg11.dtd">
<!-- Generated by graphviz version 2.40.1 (20161225.0304)
 -->
<!-- Title: controllers_diagram Pages: 1 -->
<svg width="573pt" height="537pt"
 viewBox="0.00 0.00 573.00 537.00" xmlns="http://www.w3.org/2000/svg" xmlns:xlink="http://www.w3.org/1999/xlink">
<g id="graph0" class="graph" transform="scale(1 1) rotate(0) translate(4 533)">
<title>controllers_diagram</title>
<polygon fill="transparent" stroke="transparent" points="-4,4 -4,-533 569,-533 569,4 -4,4"/>
<!-- _diagram_info -->
<g id="node1" class="node">
<title>_diagram_info</title>
<text text-anchor="start" x="113" y="-228.6" font-family="Times,serif" font-size="13.00" fill="#000000">Controllers diagram</text>
<text text-anchor="start" x="113" y="-214.6" font-family="Times,serif" font-size="13.00" fill="#000000">Date: Dec 21 2018 &#45; 12:19</text>
<text text-anchor="start" x="113" y="-200.6" font-family="Times,serif" font-size="13.00" fill="#000000">Migration version: 20181216114206</text>
<text text-anchor="start" x="113" y="-186.6" font-family="Times,serif" font-size="13.00" fill="#000000">Generated by RailRoady 1.5.3</text>
<text text-anchor="start" x="113" y="-172.6" font-family="Times,serif" font-size="13.00" fill="#000000">http://railroady.prestonlee.com</text>
</g>
<!-- ProductsController -->
<g id="node2" class="node">
<title>ProductsController</title>
<path fill="none" stroke="#000000" d="M447,-390.5C447,-390.5 542,-390.5 542,-390.5 548,-390.5 554,-396.5 554,-402.5 554,-402.5 554,-471.5 554,-471.5 554,-477.5 548,-483.5 542,-483.5 542,-483.5 447,-483.5 447,-483.5 441,-483.5 435,-477.5 435,-471.5 435,-471.5 435,-402.5 435,-402.5 435,-396.5 441,-390.5 447,-390.5"/>
<text text-anchor="middle" x="494.5" y="-468.3" font-family="Times,serif" font-size="14.00" fill="#000000">ProductsController</text>
<polyline fill="none" stroke="#000000" points="435,-460.5 554,-460.5 "/>
<text text-anchor="start" x="443" y="-445.3" font-family="Times,serif" font-size="14.00" fill="#000000">show</text>
<polyline fill="none" stroke="#000000" points="435,-437.5 554,-437.5 "/>
<polyline fill="none" stroke="#000000" points="435,-413.5 554,-413.5 "/>
<text text-anchor="start" x="443" y="-398.3" font-family="Times,serif" font-size="14.00" fill="#000000">_layout</text>
</g>
<!-- CategoriesController -->
<g id="node3" class="node">
<title>CategoriesController</title>
<path fill="none" stroke="#000000" d="M447,-270.5C447,-270.5 553,-270.5 553,-270.5 559,-270.5 565,-276.5 565,-282.5 565,-282.5 565,-351.5 565,-351.5 565,-357.5 559,-363.5 553,-363.5 553,-363.5 447,-363.5 447,-363.5 441,-363.5 435,-357.5 435,-351.5 435,-351.5 435,-282.5 435,-282.5 435,-276.5 441,-270.5 447,-270.5"/>
<text text-anchor="middle" x="500" y="-348.3" font-family="Times,serif" font-size="14.00" fill="#000000">CategoriesController</text>
<polyline fill="none" stroke="#000000" points="435,-340.5 565,-340.5 "/>
<text text-anchor="start" x="443" y="-325.3" font-family="Times,serif" font-size="14.00" fill="#000000">show</text>
<polyline fill="none" stroke="#000000" points="435,-317.5 565,-317.5 "/>
<polyline fill="none" stroke="#000000" points="435,-293.5 565,-293.5 "/>
<text text-anchor="start" x="443" y="-278.3" font-family="Times,serif" font-size="14.00" fill="#000000">_layout</text>
</g>
<!-- QuestionsController -->
<g id="node4" class="node">
<title>QuestionsController</title>
<path fill="none" stroke="#000000" d="M147,-300.5C147,-300.5 249,-300.5 249,-300.5 255,-300.5 261,-306.5 261,-312.5 261,-312.5 261,-426.5 261,-426.5 261,-432.5 255,-438.5 249,-438.5 249,-438.5 147,-438.5 147,-438.5 141,-438.5 135,-432.5 135,-426.5 135,-426.5 135,-312.5 135,-312.5 135,-306.5 141,-300.5 147,-300.5"/>
<text text-anchor="middle" x="198" y="-423.3" font-family="Times,serif" font-size="14.00" fill="#000000">QuestionsController</text>
<polyline fill="none" stroke="#000000" points="135,-415.5 261,-415.5 "/>
<text text-anchor="start" x="143" y="-400.3" font-family="Times,serif" font-size="14.00" fill="#000000">create</text>
<text text-anchor="start" x="143" y="-385.3" font-family="Times,serif" font-size="14.00" fill="#000000">new</text>
<polyline fill="none" stroke="#000000" points="135,-377.5 261,-377.5 "/>
<polyline fill="none" stroke="#000000" points="135,-353.5 261,-353.5 "/>
<text text-anchor="start" x="143" y="-338.3" font-family="Times,serif" font-size="14.00" fill="#000000">_layout</text>
<text text-anchor="start" x="143" y="-323.3" font-family="Times,serif" font-size="14.00" fill="#000000">question_params</text>
<text text-anchor="start" x="143" y="-308.3" font-family="Times,serif" font-size="14.00" fill="#000000">set_product</text>
</g>
<!-- PagesController -->
<g id="node5" class="node">
<title>PagesController</title>
<path fill="none" stroke="#000000" d="M12,-435.5C12,-435.5 92,-435.5 92,-435.5 98,-435.5 104,-441.5 104,-447.5 104,-447.5 104,-516.5 104,-516.5 104,-522.5 98,-528.5 92,-528.5 92,-528.5 12,-528.5 12,-528.5 6,-528.5 0,-522.5 0,-516.5 0,-516.5 0,-447.5 0,-447.5 0,-441.5 6,-435.5 12,-435.5"/>
<text text-anchor="middle" x="52" y="-513.3" font-family="Times,serif" font-size="14.00" fill="#000000">PagesController</text>
<polyline fill="none" stroke="#000000" points="0,-505.5 104,-505.5 "/>
<text text-anchor="start" x="8" y="-490.3" font-family="Times,serif" font-size="14.00" fill="#000000">index</text>
<polyline fill="none" stroke="#000000" points="0,-482.5 104,-482.5 "/>
<polyline fill="none" stroke="#000000" points="0,-458.5 104,-458.5 "/>
<text text-anchor="start" x="8" y="-443.3" font-family="Times,serif" font-size="14.00" fill="#000000">_layout</text>
</g>
<!-- PostsController -->
<g id="node6" class="node">
<title>PostsController</title>
<path fill="none" stroke="#000000" d="M27,-.5C27,-.5 104,-.5 104,-.5 110,-.5 116,-6.5 116,-12.5 116,-12.5 116,-126.5 116,-126.5 116,-132.5 110,-138.5 104,-138.5 104,-138.5 27,-138.5 27,-138.5 21,-138.5 15,-132.5 15,-126.5 15,-126.5 15,-12.5 15,-12.5 15,-6.5 21,-.5 27,-.5"/>
<text text-anchor="middle" x="65.5" y="-123.3" font-family="Times,serif" font-size="14.00" fill="#000000">PostsController</text>
<polyline fill="none" stroke="#000000" points="15,-115.5 116,-115.5 "/>
<text text-anchor="start" x="23" y="-100.3" font-family="Times,serif" font-size="14.00" fill="#000000">create</text>
<text text-anchor="start" x="23" y="-85.3" font-family="Times,serif" font-size="14.00" fill="#000000">new</text>
<polyline fill="none" stroke="#000000" points="15,-77.5 116,-77.5 "/>
<polyline fill="none" stroke="#000000" points="15,-53.5 116,-53.5 "/>
<text text-anchor="start" x="23" y="-38.3" font-family="Times,serif" font-size="14.00" fill="#000000">_layout</text>
<text text-anchor="start" x="23" y="-23.3" font-family="Times,serif" font-size="14.00" fill="#000000">post_params</text>
<text text-anchor="start" x="23" y="-8.3" font-family="Times,serif" font-size="14.00" fill="#000000">set_product</text>
</g>
<!-- OrdersController -->
<g id="node7" class="node">
<title>OrdersController</title>
<path fill="none" stroke="#000000" d="M357,-90.5C357,-90.5 442,-90.5 442,-90.5 448,-90.5 454,-96.5 454,-102.5 454,-102.5 454,-231.5 454,-231.5 454,-237.5 448,-243.5 442,-243.5 442,-243.5 357,-243.5 357,-243.5 351,-243.5 345,-237.5 345,-231.5 345,-231.5 345,-102.5 345,-102.5 345,-96.5 351,-90.5 357,-90.5"/>
<text text-anchor="middle" x="399.5" y="-228.3" font-family="Times,serif" font-size="14.00" fill="#000000">OrdersController</text>
<polyline fill="none" stroke="#000000" points="345,-220.5 454,-220.5 "/>
<text text-anchor="start" x="353" y="-205.3" font-family="Times,serif" font-size="14.00" fill="#000000">create</text>
<text text-anchor="start" x="353" y="-190.3" font-family="Times,serif" font-size="14.00" fill="#000000">index</text>
<text text-anchor="start" x="353" y="-175.3" font-family="Times,serif" font-size="14.00" fill="#000000">new</text>
<polyline fill="none" stroke="#000000" points="345,-167.5 454,-167.5 "/>
<polyline fill="none" stroke="#000000" points="345,-143.5 454,-143.5 "/>
<text text-anchor="start" x="353" y="-128.3" font-family="Times,serif" font-size="14.00" fill="#000000">_layout</text>
<text text-anchor="start" x="353" y="-113.3" font-family="Times,serif" font-size="14.00" fill="#000000">order_params</text>
<text text-anchor="start" x="353" y="-98.3" font-family="Times,serif" font-size="14.00" fill="#000000">set_product</text>
</g>
<!-- ProfilesController -->
<g id="node8" class="node">
<title>ProfilesController</title>
<path fill="none" stroke="#000000" d="M297,-270.5C297,-270.5 387,-270.5 387,-270.5 393,-270.5 399,-276.5 399,-282.5 399,-282.5 399,-441.5 399,-441.5 399,-447.5 393,-453.5 387,-453.5 387,-453.5 297,-453.5 297,-453.5 291,-453.5 285,-447.5 285,-441.5 285,-441.5 285,-282.5 285,-282.5 285,-276.5 291,-270.5 297,-270.5"/>
<text text-anchor="middle" x="342" y="-438.3" font-family="Times,serif" font-size="14.00" fill="#000000">ProfilesController</text>
<polyline fill="none" stroke="#000000" points="285,-430.5 399,-430.5 "/>
<text text-anchor="start" x="293" y="-415.3" font-family="Times,serif" font-size="14.00" fill="#000000">create</text>
<text text-anchor="start" x="293" y="-400.3" font-family="Times,serif" font-size="14.00" fill="#000000">destroy</text>
<text text-anchor="start" x="293" y="-385.3" font-family="Times,serif" font-size="14.00" fill="#000000">edit</text>
<text text-anchor="start" x="293" y="-370.3" font-family="Times,serif" font-size="14.00" fill="#000000">new</text>
<text text-anchor="start" x="293" y="-355.3" font-family="Times,serif" font-size="14.00" fill="#000000">show</text>
<text text-anchor="start" x="293" y="-340.3" font-family="Times,serif" font-size="14.00" fill="#000000">update</text>
<polyline fill="none" stroke="#000000" points="285,-332.5 399,-332.5 "/>
<polyline fill="none" stroke="#000000" points="285,-308.5 399,-308.5 "/>
<text text-anchor="start" x="293" y="-293.3" font-family="Times,serif" font-size="14.00" fill="#000000">_layout</text>
<text text-anchor="start" x="293" y="-278.3" font-family="Times,serif" font-size="14.00" fill="#000000">profile_params</text>
</g>
<!-- ApplicationController -->
<g id="node9" class="node">
<title>ApplicationController</title>
<path fill="none" stroke="#000000" d="M162,-45.5C162,-45.5 274,-45.5 274,-45.5 280,-45.5 286,-51.5 286,-57.5 286,-57.5 286,-127.5 286,-127.5 286,-133.5 280,-139.5 274,-139.5 274,-139.5 162,-139.5 162,-139.5 156,-139.5 150,-133.5 150,-127.5 150,-127.5 150,-57.5 150,-57.5 150,-51.5 156,-45.5 162,-45.5"/>
<text text-anchor="middle" x="218" y="-124.3" font-family="Times,serif" font-size="14.00" fill="#000000">ApplicationController</text>
<polyline fill="none" stroke="#000000" points="150,-116.5 286,-116.5 "/>
<polyline fill="none" stroke="#000000" points="150,-92.5 286,-92.5 "/>
<polyline fill="none" stroke="#000000" points="150,-68.5 286,-68.5 "/>
<text text-anchor="start" x="158" y="-53.3" font-family="Times,serif" font-size="14.00" fill="#000000">_layout</text>
</g>
</g>
</svg>
