<?xml version="1.0" encoding="UTF-8" standalone="no"?>
<!DOCTYPE svg PUBLIC "-//W3C//DTD SVG 1.1//EN"
 "http://www.w3.org/Graphics/SVG/1.1/DTD/svg11.dtd">
<!-- Generated by graphviz version 2.40.1 (20161225.0304)
 -->
<!-- Title: controllers_diagram Pages: 1 -->
<svg width="588pt" height="567pt"
 viewBox="0.00 0.00 588.00 567.00" xmlns="http://www.w3.org/2000/svg" xmlns:xlink="http://www.w3.org/1999/xlink">
<g id="graph0" class="graph" transform="scale(1 1) rotate(0) translate(4 563)">
<title>controllers_diagram</title>
<polygon fill="transparent" stroke="transparent" points="-4,4 -4,-563 584,-563 584,4 -4,4"/>
<!-- _diagram_info -->
<g id="node1" class="node">
<title>_diagram_info</title>
<text text-anchor="start" x="113" y="-258.6" font-family="Times,serif" font-size="13.00" fill="#000000">Controllers diagram</text>
<text text-anchor="start" x="113" y="-244.6" font-family="Times,serif" font-size="13.00" fill="#000000">Date: Apr 17 2019 &#45; 17:11</text>
<text text-anchor="start" x="113" y="-230.6" font-family="Times,serif" font-size="13.00" fill="#000000">Migration version: 20181216114206</text>
<text text-anchor="start" x="113" y="-216.6" font-family="Times,serif" font-size="13.00" fill="#000000">Generated by RailRoady 1.5.3</text>
<text text-anchor="start" x="113" y="-202.6" font-family="Times,serif" font-size="13.00" fill="#000000">http://railroady.prestonlee.com</text>
</g>
<!-- ApplicationController -->
<g id="node2" class="node">
<title>ApplicationController</title>
<path fill="none" stroke="#000000" d="M72,-75.5C72,-75.5 184,-75.5 184,-75.5 190,-75.5 196,-81.5 196,-87.5 196,-87.5 196,-157.5 196,-157.5 196,-163.5 190,-169.5 184,-169.5 184,-169.5 72,-169.5 72,-169.5 66,-169.5 60,-163.5 60,-157.5 60,-157.5 60,-87.5 60,-87.5 60,-81.5 66,-75.5 72,-75.5"/>
<text text-anchor="middle" x="128" y="-154.3" font-family="Times,serif" font-size="14.00" fill="#000000">ApplicationController</text>
<polyline fill="none" stroke="#000000" points="60,-146.5 196,-146.5 "/>
<polyline fill="none" stroke="#000000" points="60,-122.5 196,-122.5 "/>
<polyline fill="none" stroke="#000000" points="60,-98.5 196,-98.5 "/>
<text text-anchor="start" x="68" y="-83.3" font-family="Times,serif" font-size="14.00" fill="#000000">_layout</text>
</g>
<!-- CategoriesController -->
<g id="node3" class="node">
<title>CategoriesController</title>
<path fill="none" stroke="#000000" d="M462,-465.5C462,-465.5 568,-465.5 568,-465.5 574,-465.5 580,-471.5 580,-477.5 580,-477.5 580,-546.5 580,-546.5 580,-552.5 574,-558.5 568,-558.5 568,-558.5 462,-558.5 462,-558.5 456,-558.5 450,-552.5 450,-546.5 450,-546.5 450,-477.5 450,-477.5 450,-471.5 456,-465.5 462,-465.5"/>
<text text-anchor="middle" x="515" y="-543.3" font-family="Times,serif" font-size="14.00" fill="#000000">CategoriesController</text>
<polyline fill="none" stroke="#000000" points="450,-535.5 580,-535.5 "/>
<text text-anchor="start" x="458" y="-520.3" font-family="Times,serif" font-size="14.00" fill="#000000">show</text>
<polyline fill="none" stroke="#000000" points="450,-512.5 580,-512.5 "/>
<polyline fill="none" stroke="#000000" points="450,-488.5 580,-488.5 "/>
<text text-anchor="start" x="458" y="-473.3" font-family="Times,serif" font-size="14.00" fill="#000000">_layout</text>
</g>
<!-- QuestionsController -->
<g id="node4" class="node">
<title>QuestionsController</title>
<path fill="none" stroke="#000000" d="M147,-330.5C147,-330.5 249,-330.5 249,-330.5 255,-330.5 261,-336.5 261,-342.5 261,-342.5 261,-456.5 261,-456.5 261,-462.5 255,-468.5 249,-468.5 249,-468.5 147,-468.5 147,-468.5 141,-468.5 135,-462.5 135,-456.5 135,-456.5 135,-342.5 135,-342.5 135,-336.5 141,-330.5 147,-330.5"/>
<text text-anchor="middle" x="198" y="-453.3" font-family="Times,serif" font-size="14.00" fill="#000000">QuestionsController</text>
<polyline fill="none" stroke="#000000" points="135,-445.5 261,-445.5 "/>
<text text-anchor="start" x="143" y="-430.3" font-family="Times,serif" font-size="14.00" fill="#000000">create</text>
<text text-anchor="start" x="143" y="-415.3" font-family="Times,serif" font-size="14.00" fill="#000000">new</text>
<polyline fill="none" stroke="#000000" points="135,-407.5 261,-407.5 "/>
<polyline fill="none" stroke="#000000" points="135,-383.5 261,-383.5 "/>
<text text-anchor="start" x="143" y="-368.3" font-family="Times,serif" font-size="14.00" fill="#000000">_layout</text>
<text text-anchor="start" x="143" y="-353.3" font-family="Times,serif" font-size="14.00" fill="#000000">question_params</text>
<text text-anchor="start" x="143" y="-338.3" font-family="Times,serif" font-size="14.00" fill="#000000">set_product</text>
</g>
<!-- OrdersController -->
<g id="node5" class="node">
<title>OrdersController</title>
<path fill="none" stroke="#000000" d="M357,-120.5C357,-120.5 442,-120.5 442,-120.5 448,-120.5 454,-126.5 454,-132.5 454,-132.5 454,-261.5 454,-261.5 454,-267.5 448,-273.5 442,-273.5 442,-273.5 357,-273.5 357,-273.5 351,-273.5 345,-267.5 345,-261.5 345,-261.5 345,-132.5 345,-132.5 345,-126.5 351,-120.5 357,-120.5"/>
<text text-anchor="middle" x="399.5" y="-258.3" font-family="Times,serif" font-size="14.00" fill="#000000">OrdersController</text>
<polyline fill="none" stroke="#000000" points="345,-250.5 454,-250.5 "/>
<text text-anchor="start" x="353" y="-235.3" font-family="Times,serif" font-size="14.00" fill="#000000">create</text>
<text text-anchor="start" x="353" y="-220.3" font-family="Times,serif" font-size="14.00" fill="#000000">index</text>
<text text-anchor="start" x="353" y="-205.3" font-family="Times,serif" font-size="14.00" fill="#000000">new</text>
<polyline fill="none" stroke="#000000" points="345,-197.5 454,-197.5 "/>
<polyline fill="none" stroke="#000000" points="345,-173.5 454,-173.5 "/>
<text text-anchor="start" x="353" y="-158.3" font-family="Times,serif" font-size="14.00" fill="#000000">_layout</text>
<text text-anchor="start" x="353" y="-143.3" font-family="Times,serif" font-size="14.00" fill="#000000">order_params</text>
<text text-anchor="start" x="353" y="-128.3" font-family="Times,serif" font-size="14.00" fill="#000000">set_product</text>
</g>
<!-- ProfilesController -->
<g id="node6" class="node">
<title>ProfilesController</title>
<path fill="none" stroke="#000000" d="M297,-300.5C297,-300.5 387,-300.5 387,-300.5 393,-300.5 399,-306.5 399,-312.5 399,-312.5 399,-471.5 399,-471.5 399,-477.5 393,-483.5 387,-483.5 387,-483.5 297,-483.5 297,-483.5 291,-483.5 285,-477.5 285,-471.5 285,-471.5 285,-312.5 285,-312.5 285,-306.5 291,-300.5 297,-300.5"/>
<text text-anchor="middle" x="342" y="-468.3" font-family="Times,serif" font-size="14.00" fill="#000000">ProfilesController</text>
<polyline fill="none" stroke="#000000" points="285,-460.5 399,-460.5 "/>
<text text-anchor="start" x="293" y="-445.3" font-family="Times,serif" font-size="14.00" fill="#000000">create</text>
<text text-anchor="start" x="293" y="-430.3" font-family="Times,serif" font-size="14.00" fill="#000000">destroy</text>
<text text-anchor="start" x="293" y="-415.3" font-family="Times,serif" font-size="14.00" fill="#000000">edit</text>
<text text-anchor="start" x="293" y="-400.3" font-family="Times,serif" font-size="14.00" fill="#000000">new</text>
<text text-anchor="start" x="293" y="-385.3" font-family="Times,serif" font-size="14.00" fill="#000000">show</text>
<text text-anchor="start" x="293" y="-370.3" font-family="Times,serif" font-size="14.00" fill="#000000">update</text>
<polyline fill="none" stroke="#000000" points="285,-362.5 399,-362.5 "/>
<polyline fill="none" stroke="#000000" points="285,-338.5 399,-338.5 "/>
<text text-anchor="start" x="293" y="-323.3" font-family="Times,serif" font-size="14.00" fill="#000000">_layout</text>
<text text-anchor="start" x="293" y="-308.3" font-family="Times,serif" font-size="14.00" fill="#000000">profile_params</text>
</g>
<!-- PagesController -->
<g id="node7" class="node">
<title>PagesController</title>
<path fill="none" stroke="#000000" d="M12,-465.5C12,-465.5 92,-465.5 92,-465.5 98,-465.5 104,-471.5 104,-477.5 104,-477.5 104,-546.5 104,-546.5 104,-552.5 98,-558.5 92,-558.5 92,-558.5 12,-558.5 12,-558.5 6,-558.5 0,-552.5 0,-546.5 0,-546.5 0,-477.5 0,-477.5 0,-471.5 6,-465.5 12,-465.5"/>
<text text-anchor="middle" x="52" y="-543.3" font-family="Times,serif" font-size="14.00" fill="#000000">PagesController</text>
<polyline fill="none" stroke="#000000" points="0,-535.5 104,-535.5 "/>
<text text-anchor="start" x="8" y="-520.3" font-family="Times,serif" font-size="14.00" fill="#000000">index</text>
<polyline fill="none" stroke="#000000" points="0,-512.5 104,-512.5 "/>
<polyline fill="none" stroke="#000000" points="0,-488.5 104,-488.5 "/>
<text text-anchor="start" x="8" y="-473.3" font-family="Times,serif" font-size="14.00" fill="#000000">_layout</text>
</g>
<!-- PostsController -->
<g id="node8" class="node">
<title>PostsController</title>
<path fill="none" stroke="#000000" d="M447,-300.5C447,-300.5 524,-300.5 524,-300.5 530,-300.5 536,-306.5 536,-312.5 536,-312.5 536,-426.5 536,-426.5 536,-432.5 530,-438.5 524,-438.5 524,-438.5 447,-438.5 447,-438.5 441,-438.5 435,-432.5 435,-426.5 435,-426.5 435,-312.5 435,-312.5 435,-306.5 441,-300.5 447,-300.5"/>
<text text-anchor="middle" x="485.5" y="-423.3" font-family="Times,serif" font-size="14.00" fill="#000000">PostsController</text>
<polyline fill="none" stroke="#000000" points="435,-415.5 536,-415.5 "/>
<text text-anchor="start" x="443" y="-400.3" font-family="Times,serif" font-size="14.00" fill="#000000">create</text>
<text text-anchor="start" x="443" y="-385.3" font-family="Times,serif" font-size="14.00" fill="#000000">new</text>
<polyline fill="none" stroke="#000000" points="435,-377.5 536,-377.5 "/>
<polyline fill="none" stroke="#000000" points="435,-353.5 536,-353.5 "/>
<text text-anchor="start" x="443" y="-338.3" font-family="Times,serif" font-size="14.00" fill="#000000">_layout</text>
<text text-anchor="start" x="443" y="-323.3" font-family="Times,serif" font-size="14.00" fill="#000000">post_params</text>
<text text-anchor="start" x="443" y="-308.3" font-family="Times,serif" font-size="14.00" fill="#000000">set_product</text>
</g>
<!-- ProductsController -->
<g id="node9" class="node">
<title>ProductsController</title>
<path fill="none" stroke="#000000" d="M237,-.5C237,-.5 332,-.5 332,-.5 338,-.5 344,-6.5 344,-12.5 344,-12.5 344,-81.5 344,-81.5 344,-87.5 338,-93.5 332,-93.5 332,-93.5 237,-93.5 237,-93.5 231,-93.5 225,-87.5 225,-81.5 225,-81.5 225,-12.5 225,-12.5 225,-6.5 231,-.5 237,-.5"/>
<text text-anchor="middle" x="284.5" y="-78.3" font-family="Times,serif" font-size="14.00" fill="#000000">ProductsController</text>
<polyline fill="none" stroke="#000000" points="225,-70.5 344,-70.5 "/>
<text text-anchor="start" x="233" y="-55.3" font-family="Times,serif" font-size="14.00" fill="#000000">show</text>
<polyline fill="none" stroke="#000000" points="225,-47.5 344,-47.5 "/>
<polyline fill="none" stroke="#000000" points="225,-23.5 344,-23.5 "/>
<text text-anchor="start" x="233" y="-8.3" font-family="Times,serif" font-size="14.00" fill="#000000">_layout</text>
</g>
</g>
</svg>
