<?xml version="1.0" encoding="UTF-8" standalone="no"?>
<!DOCTYPE svg PUBLIC "-//W3C//DTD SVG 1.1//EN"
 "http://www.w3.org/Graphics/SVG/1.1/DTD/svg11.dtd">
<!-- Generated by graphviz version 2.40.1 (20161225.0304)
 -->
<!-- Title: models_diagram Pages: 1 -->
<svg width="624pt" height="230pt"
 viewBox="0.00 0.00 624.00 230.00" xmlns="http://www.w3.org/2000/svg" xmlns:xlink="http://www.w3.org/1999/xlink">
<g id="graph0" class="graph" transform="scale(1 1) rotate(0) translate(4 226)">
<title>models_diagram</title>
<polygon fill="transparent" stroke="transparent" points="-4,4 -4,-226 619.9954,-226 619.9954,4 -4,4"/>
<!-- _diagram_info -->
<g id="node1" class="node">
<title>_diagram_info</title>
<text text-anchor="start" x="8" y="-207.6" font-family="Times,serif" font-size="13.00" fill="#000000">Models diagram</text>
<text text-anchor="start" x="8" y="-193.6" font-family="Times,serif" font-size="13.00" fill="#000000">Date: Apr 17 2019 &#45; 17:11</text>
<text text-anchor="start" x="8" y="-179.6" font-family="Times,serif" font-size="13.00" fill="#000000">Migration version: 20181216114206</text>
<text text-anchor="start" x="8" y="-165.6" font-family="Times,serif" font-size="13.00" fill="#000000">Generated by RailRoady 1.5.3</text>
<text text-anchor="start" x="8" y="-151.6" font-family="Times,serif" font-size="13.00" fill="#000000">http://railroady.prestonlee.com</text>
</g>
<!-- Product -->
<g id="node2" class="node">
<title>Product</title>
<ellipse fill="none" stroke="#000000" cx="277" cy="-90" rx="38.1938" ry="18"/>
<text text-anchor="middle" x="277" y="-86.3" font-family="Times,serif" font-size="14.00" fill="#000000">Product</text>
</g>
<!-- Order -->
<g id="node4" class="node">
<title>Order</title>
<ellipse fill="none" stroke="#000000" cx="186" cy="-18" rx="31.3957" ry="18"/>
<text text-anchor="middle" x="186" y="-14.3" font-family="Times,serif" font-size="14.00" fill="#000000">Order</text>
</g>
<!-- Product&#45;&gt;Order -->
<g id="edge3" class="edge">
<title>Product&#45;&gt;Order</title>
<path fill="none" stroke="#873d0d" d="M250.7134,-69.2018C238.6805,-59.6813 224.4516,-48.4232 212.4045,-38.8915"/>
<ellipse fill="none" stroke="#873d0d" cx="254.1175" cy="-71.8951" rx="4" ry="4"/>
<polygon fill="#873d0d" stroke="#873d0d" points="212.3088,-38.8158 207.2588,-29.0819 208.3877,-35.7134 204.4666,-32.6109 204.4666,-32.6109 204.4666,-32.6109 208.3877,-35.7134 201.6744,-36.1399 212.3088,-38.8158 212.3088,-38.8158"/>
</g>
<!-- Question -->
<g id="node9" class="node">
<title>Question</title>
<ellipse fill="none" stroke="#000000" cx="277" cy="-18" rx="42.4939" ry="18"/>
<text text-anchor="middle" x="277" y="-14.3" font-family="Times,serif" font-size="14.00" fill="#000000">Question</text>
</g>
<!-- Product&#45;&gt;Question -->
<g id="edge2" class="edge">
<title>Product&#45;&gt;Question</title>
<path fill="none" stroke="#6efe20" d="M277,-63.8144C277,-58.2775 277,-52.4053 277,-46.7785"/>
<ellipse fill="none" stroke="#6efe20" cx="277" cy="-67.8314" rx="4" ry="4"/>
<polygon fill="#6efe20" stroke="#6efe20" points="277.0001,-46.4133 281.5,-36.4132 277,-41.4133 277,-36.4133 277,-36.4133 277,-36.4133 277,-41.4133 272.5,-36.4133 277.0001,-46.4133 277.0001,-46.4133"/>
</g>
<!-- Post -->
<g id="node10" class="node">
<title>Post</title>
<ellipse fill="none" stroke="#000000" cx="364" cy="-18" rx="27" ry="18"/>
<text text-anchor="middle" x="364" y="-14.3" font-family="Times,serif" font-size="14.00" fill="#000000">Post</text>
</g>
<!-- Product&#45;&gt;Post -->
<g id="edge1" class="edge">
<title>Product&#45;&gt;Post</title>
<path fill="none" stroke="#a90fd7" d="M302.6062,-68.8087C314.0677,-59.3233 327.5365,-48.1767 338.9338,-38.7445"/>
<ellipse fill="none" stroke="#a90fd7" cx="299.3897" cy="-71.4706" rx="4" ry="4"/>
<polygon fill="#a90fd7" stroke="#a90fd7" points="339.1044,-38.6033 349.6774,-35.6944 342.9564,-35.4154 346.8084,-32.2276 346.8084,-32.2276 346.8084,-32.2276 342.9564,-35.4154 343.9393,-28.7608 339.1044,-38.6033 339.1044,-38.6033"/>
</g>
<!-- User -->
<g id="node3" class="node">
<title>User</title>
<ellipse fill="none" stroke="#000000" cx="190" cy="-90" rx="27.0966" ry="18"/>
<text text-anchor="middle" x="190" y="-86.3" font-family="Times,serif" font-size="14.00" fill="#000000">User</text>
</g>
<!-- User&#45;&gt;Order -->
<g id="edge7" class="edge">
<title>User&#45;&gt;Order</title>
<path fill="none" stroke="#5c2fa7" d="M188.5452,-63.8144C188.2376,-58.2775 187.9114,-52.4053 187.5988,-46.7785"/>
<ellipse fill="none" stroke="#5c2fa7" cx="188.7687" cy="-67.8375" rx="4" ry="4"/>
<polygon fill="#5c2fa7" stroke="#5c2fa7" points="187.5778,-46.3979 191.516,-36.1636 187.3004,-41.4056 187.023,-36.4133 187.023,-36.4133 187.023,-36.4133 187.3004,-41.4056 182.5299,-36.6629 187.5778,-46.3979 187.5778,-46.3979"/>
</g>
<!-- Profile -->
<g id="node5" class="node">
<title>Profile</title>
<ellipse fill="none" stroke="#000000" cx="102" cy="-18" rx="34.394" ry="18"/>
<text text-anchor="middle" x="102" y="-14.3" font-family="Times,serif" font-size="14.00" fill="#000000">Profile</text>
</g>
<!-- User&#45;&gt;Profile -->
<g id="edge4" class="edge">
<title>User&#45;&gt;Profile</title>
<path fill="none" stroke="#1aeae1" d="M166.306,-70.614C154.0764,-60.608 139.1659,-48.4085 126.7827,-38.2768"/>
<ellipse fill="none" stroke="#1aeae1" cx="169.5182" cy="-73.2421" rx="4" ry="4"/>
<ellipse fill="#1aeae1" stroke="#1aeae1" cx="123.6609" cy="-35.7226" rx="4" ry="4"/>
</g>
<!-- User&#45;&gt;Question -->
<g id="edge6" class="edge">
<title>User&#45;&gt;Question</title>
<path fill="none" stroke="#50f929" d="M213.6245,-70.4487C224.6712,-61.3066 237.8963,-50.3617 249.4007,-40.8408"/>
<ellipse fill="none" stroke="#50f929" cx="210.27" cy="-73.2248" rx="4" ry="4"/>
<polygon fill="#50f929" stroke="#50f929" points="249.7139,-40.5816 260.287,-37.6727 253.5659,-37.3937 257.4179,-34.2059 257.4179,-34.2059 257.4179,-34.2059 253.5659,-37.3937 254.5488,-30.7391 249.7139,-40.5816 249.7139,-40.5816"/>
</g>
<!-- User&#45;&gt;Post -->
<g id="edge5" class="edge">
<title>User&#45;&gt;Post</title>
<path fill="none" stroke="#db5be6" d="M220.2604,-76.1117C223.5338,-74.6905 226.8272,-73.2948 230,-72 272.9619,-54.4683 285.4046,-54.4043 328,-36 329.78,-35.2309 331.5972,-34.417 333.4225,-33.5771"/>
<ellipse fill="none" stroke="#db5be6" cx="216.3838" cy="-77.8231" rx="4" ry="4"/>
<polygon fill="#db5be6" stroke="#db5be6" points="333.4599,-33.5593 344.4229,-33.3078 337.9713,-31.4034 342.4827,-29.2476 342.4827,-29.2476 342.4827,-29.2476 337.9713,-31.4034 340.5424,-25.1873 333.4599,-33.5593 333.4599,-33.5593"/>
</g>
<!-- ApplicationRecord -->
<g id="node6" class="node">
<title>ApplicationRecord</title>
<ellipse fill="none" stroke="#000000" cx="417" cy="-183" rx="77.1866" ry="18"/>
<text text-anchor="middle" x="417" y="-179.3" font-family="Times,serif" font-size="14.00" fill="#000000">ApplicationRecord</text>
</g>
<!-- AdminUser -->
<g id="node7" class="node">
<title>AdminUser</title>
<ellipse fill="none" stroke="#000000" cx="564" cy="-183" rx="51.9908" ry="18"/>
<text text-anchor="middle" x="564" y="-179.3" font-family="Times,serif" font-size="14.00" fill="#000000">AdminUser</text>
</g>
<!-- Categorie -->
<g id="node8" class="node">
<title>Categorie</title>
<ellipse fill="none" stroke="#000000" cx="277" cy="-183" rx="44.6926" ry="18"/>
<text text-anchor="middle" x="277" y="-179.3" font-family="Times,serif" font-size="14.00" fill="#000000">Categorie</text>
</g>
<!-- Categorie&#45;&gt;Product -->
<g id="edge8" class="edge">
<title>Categorie&#45;&gt;Product</title>
<path fill="none" stroke="#954169" d="M277,-156.4432C277,-144.4479 277,-130.268 277,-118.0949"/>
<ellipse fill="none" stroke="#954169" cx="277" cy="-160.6262" rx="4" ry="4"/>
<polygon fill="#954169" stroke="#954169" points="277.0001,-118.0192 281.5,-108.0191 277,-113.0192 277,-108.0192 277,-108.0192 277,-108.0192 277,-113.0192 272.5,-108.0192 277.0001,-118.0192 277.0001,-118.0192"/>
</g>
</g>
</svg>
