<?xml version="1.0" encoding="UTF-8" standalone="no"?>
<!DOCTYPE svg PUBLIC "-//W3C//DTD SVG 1.1//EN"
 "http://www.w3.org/Graphics/SVG/1.1/DTD/svg11.dtd">
<!-- Generated by graphviz version 2.40.1 (20161225.0304)
 -->
<!-- Title: models_diagram Pages: 1 -->
<svg width="863pt" height="551pt"
 viewBox="0.00 0.00 862.50 551.00" xmlns="http://www.w3.org/2000/svg" xmlns:xlink="http://www.w3.org/1999/xlink">
<g id="graph0" class="graph" transform="scale(1 1) rotate(0) translate(4 547)">
<title>models_diagram</title>
<polygon fill="transparent" stroke="transparent" points="-4,4 -4,-547 858.5,-547 858.5,4 -4,4"/>
<!-- _diagram_info -->
<g id="node1" class="node">
<title>_diagram_info</title>
<text text-anchor="start" x="108.5" y="-491.6" font-family="Times,serif" font-size="13.00" fill="#000000">Models diagram</text>
<text text-anchor="start" x="108.5" y="-477.6" font-family="Times,serif" font-size="13.00" fill="#000000">Date: Apr 17 2019 &#45; 17:11</text>
<text text-anchor="start" x="108.5" y="-463.6" font-family="Times,serif" font-size="13.00" fill="#000000">Migration version: 20181216114206</text>
<text text-anchor="start" x="108.5" y="-449.6" font-family="Times,serif" font-size="13.00" fill="#000000">Generated by RailRoady 1.5.3</text>
<text text-anchor="start" x="108.5" y="-435.6" font-family="Times,serif" font-size="13.00" fill="#000000">http://railroady.prestonlee.com</text>
</g>
<!-- Product -->
<g id="node2" class="node">
<title>Product</title>
<path fill="none" stroke="#000000" d="M345,-188.5C345,-188.5 452,-188.5 452,-188.5 458,-188.5 464,-194.5 464,-200.5 464,-200.5 464,-342.5 464,-342.5 464,-348.5 458,-354.5 452,-354.5 452,-354.5 345,-354.5 345,-354.5 339,-354.5 333,-348.5 333,-342.5 333,-342.5 333,-200.5 333,-200.5 333,-194.5 339,-188.5 345,-188.5"/>
<text text-anchor="middle" x="398.5" y="-339.3" font-family="Times,serif" font-size="14.00" fill="#000000">Product</text>
<polyline fill="none" stroke="#000000" points="333,-331.5 464,-331.5 "/>
<text text-anchor="start" x="341" y="-316.3" font-family="Times,serif" font-size="14.00" fill="#000000">id :INTEGER</text>
<text text-anchor="start" x="341" y="-301.3" font-family="Times,serif" font-size="14.00" fill="#000000">name :varchar</text>
<text text-anchor="start" x="341" y="-286.3" font-family="Times,serif" font-size="14.00" fill="#000000">description :varchar</text>
<text text-anchor="start" x="341" y="-271.3" font-family="Times,serif" font-size="14.00" fill="#000000">categorie_id :integer</text>
<text text-anchor="start" x="341" y="-256.3" font-family="Times,serif" font-size="14.00" fill="#000000">price :float</text>
<text text-anchor="start" x="341" y="-241.3" font-family="Times,serif" font-size="14.00" fill="#000000">pcount :integer</text>
<text text-anchor="start" x="341" y="-226.3" font-family="Times,serif" font-size="14.00" fill="#000000">created_at :datetime</text>
<text text-anchor="start" x="341" y="-211.3" font-family="Times,serif" font-size="14.00" fill="#000000">updated_at :datetime</text>
<text text-anchor="start" x="341" y="-196.3" font-family="Times,serif" font-size="14.00" fill="#000000">images :varchar</text>
</g>
<!-- Order -->
<g id="node4" class="node">
<title>Order</title>
<path fill="none" stroke="#000000" d="M161,-8C161,-8 268,-8 268,-8 274,-8 280,-14 280,-20 280,-20 280,-132 280,-132 280,-138 274,-144 268,-144 268,-144 161,-144 161,-144 155,-144 149,-138 149,-132 149,-132 149,-20 149,-20 149,-14 155,-8 161,-8"/>
<text text-anchor="middle" x="214.5" y="-128.8" font-family="Times,serif" font-size="14.00" fill="#000000">Order</text>
<polyline fill="none" stroke="#000000" points="149,-121 280,-121 "/>
<text text-anchor="start" x="157" y="-105.8" font-family="Times,serif" font-size="14.00" fill="#000000">id :INTEGER</text>
<text text-anchor="start" x="157" y="-90.8" font-family="Times,serif" font-size="14.00" fill="#000000">product_id :integer</text>
<text text-anchor="start" x="157" y="-75.8" font-family="Times,serif" font-size="14.00" fill="#000000">user_id :integer</text>
<text text-anchor="start" x="157" y="-60.8" font-family="Times,serif" font-size="14.00" fill="#000000">ordercount :float</text>
<text text-anchor="start" x="157" y="-45.8" font-family="Times,serif" font-size="14.00" fill="#000000">comment :varchar</text>
<text text-anchor="start" x="157" y="-30.8" font-family="Times,serif" font-size="14.00" fill="#000000">created_at :datetime</text>
<text text-anchor="start" x="157" y="-15.8" font-family="Times,serif" font-size="14.00" fill="#000000">updated_at :datetime</text>
</g>
<!-- Product&#45;&gt;Order -->
<g id="edge3" class="edge">
<title>Product&#45;&gt;Order</title>
<path fill="none" stroke="#b1582c" d="M327.2555,-192.0294C325.9961,-190.674 324.7435,-189.3299 323.5,-188 311.882,-175.5744 299.417,-162.5174 287.2166,-149.8836"/>
<ellipse fill="none" stroke="#b1582c" cx="330.0974" cy="-195.1005" rx="4" ry="4"/>
<polygon fill="#b1582c" stroke="#b1582c" points="287.0269,-149.6876 283.3058,-139.3723 283.5496,-146.0947 280.0723,-142.5019 280.0723,-142.5019 280.0723,-142.5019 283.5496,-146.0947 276.8387,-145.6315 287.0269,-149.6876 287.0269,-149.6876"/>
</g>
<!-- Question -->
<g id="node9" class="node">
<title>Question</title>
<path fill="none" stroke="#000000" d="M310,-15.5C310,-15.5 417,-15.5 417,-15.5 423,-15.5 429,-21.5 429,-27.5 429,-27.5 429,-124.5 429,-124.5 429,-130.5 423,-136.5 417,-136.5 417,-136.5 310,-136.5 310,-136.5 304,-136.5 298,-130.5 298,-124.5 298,-124.5 298,-27.5 298,-27.5 298,-21.5 304,-15.5 310,-15.5"/>
<text text-anchor="middle" x="363.5" y="-121.3" font-family="Times,serif" font-size="14.00" fill="#000000">Question</text>
<polyline fill="none" stroke="#000000" points="298,-113.5 429,-113.5 "/>
<text text-anchor="start" x="306" y="-98.3" font-family="Times,serif" font-size="14.00" fill="#000000">id :INTEGER</text>
<text text-anchor="start" x="306" y="-83.3" font-family="Times,serif" font-size="14.00" fill="#000000">body :varchar</text>
<text text-anchor="start" x="306" y="-68.3" font-family="Times,serif" font-size="14.00" fill="#000000">user_id :integer</text>
<text text-anchor="start" x="306" y="-53.3" font-family="Times,serif" font-size="14.00" fill="#000000">product_id :integer</text>
<text text-anchor="start" x="306" y="-38.3" font-family="Times,serif" font-size="14.00" fill="#000000">created_at :datetime</text>
<text text-anchor="start" x="306" y="-23.3" font-family="Times,serif" font-size="14.00" fill="#000000">updated_at :datetime</text>
</g>
<!-- Product&#45;&gt;Question -->
<g id="edge2" class="edge">
<title>Product&#45;&gt;Question</title>
<path fill="none" stroke="#848a35" d="M382.1429,-180.1342C380.1195,-168.8316 378.0755,-157.4148 376.12,-146.4915"/>
<ellipse fill="none" stroke="#848a35" cx="382.9012" cy="-184.3695" rx="4" ry="4"/>
<polygon fill="#848a35" stroke="#848a35" points="376.1143,-146.4596 378.7816,-135.8231 375.2332,-141.5379 374.352,-136.6161 374.352,-136.6161 374.352,-136.6161 375.2332,-141.5379 369.9224,-137.4092 376.1143,-146.4596 376.1143,-146.4596"/>
</g>
<!-- Post -->
<g id="node10" class="node">
<title>Post</title>
<path fill="none" stroke="#000000" d="M459,-8C459,-8 566,-8 566,-8 572,-8 578,-14 578,-20 578,-20 578,-132 578,-132 578,-138 572,-144 566,-144 566,-144 459,-144 459,-144 453,-144 447,-138 447,-132 447,-132 447,-20 447,-20 447,-14 453,-8 459,-8"/>
<text text-anchor="middle" x="512.5" y="-128.8" font-family="Times,serif" font-size="14.00" fill="#000000">Post</text>
<polyline fill="none" stroke="#000000" points="447,-121 578,-121 "/>
<text text-anchor="start" x="455" y="-105.8" font-family="Times,serif" font-size="14.00" fill="#000000">id :INTEGER</text>
<text text-anchor="start" x="455" y="-90.8" font-family="Times,serif" font-size="14.00" fill="#000000">body :varchar</text>
<text text-anchor="start" x="455" y="-75.8" font-family="Times,serif" font-size="14.00" fill="#000000">user_id :integer</text>
<text text-anchor="start" x="455" y="-60.8" font-family="Times,serif" font-size="14.00" fill="#000000">product_id :integer</text>
<text text-anchor="start" x="455" y="-45.8" font-family="Times,serif" font-size="14.00" fill="#000000">star :integer</text>
<text text-anchor="start" x="455" y="-30.8" font-family="Times,serif" font-size="14.00" fill="#000000">created_at :datetime</text>
<text text-anchor="start" x="455" y="-15.8" font-family="Times,serif" font-size="14.00" fill="#000000">updated_at :datetime</text>
</g>
<!-- Product&#45;&gt;Post -->
<g id="edge1" class="edge">
<title>Product&#45;&gt;Post</title>
<path fill="none" stroke="#68180d" d="M451.0616,-181.3615C456.6041,-171.8566 462.2028,-162.2552 467.6466,-152.9196"/>
<ellipse fill="none" stroke="#68180d" cx="449.0265" cy="-184.8515" rx="4" ry="4"/>
<polygon fill="#68180d" stroke="#68180d" points="467.7741,-152.7009 476.6989,-146.3291 470.2928,-148.3816 472.8115,-144.0623 472.8115,-144.0623 472.8115,-144.0623 470.2928,-148.3816 468.9241,-141.7955 467.7741,-152.7009 467.7741,-152.7009"/>
</g>
<!-- User -->
<g id="node3" class="node">
<title>User</title>
<path fill="none" stroke="#000000" d="M126.5,-196C126.5,-196 302.5,-196 302.5,-196 308.5,-196 314.5,-202 314.5,-208 314.5,-208 314.5,-335 314.5,-335 314.5,-341 308.5,-347 302.5,-347 302.5,-347 126.5,-347 126.5,-347 120.5,-347 114.5,-341 114.5,-335 114.5,-335 114.5,-208 114.5,-208 114.5,-202 120.5,-196 126.5,-196"/>
<text text-anchor="middle" x="214.5" y="-331.8" font-family="Times,serif" font-size="14.00" fill="#000000">User</text>
<polyline fill="none" stroke="#000000" points="114.5,-324 314.5,-324 "/>
<text text-anchor="start" x="122.5" y="-308.8" font-family="Times,serif" font-size="14.00" fill="#000000">id :INTEGER</text>
<text text-anchor="start" x="122.5" y="-293.8" font-family="Times,serif" font-size="14.00" fill="#000000">email :varchar</text>
<text text-anchor="start" x="122.5" y="-278.8" font-family="Times,serif" font-size="14.00" fill="#000000">encrypted_password :varchar</text>
<text text-anchor="start" x="122.5" y="-263.8" font-family="Times,serif" font-size="14.00" fill="#000000">reset_password_token :varchar</text>
<text text-anchor="start" x="122.5" y="-248.8" font-family="Times,serif" font-size="14.00" fill="#000000">reset_password_sent_at :datetime</text>
<text text-anchor="start" x="122.5" y="-233.8" font-family="Times,serif" font-size="14.00" fill="#000000">remember_created_at :datetime</text>
<text text-anchor="start" x="122.5" y="-218.8" font-family="Times,serif" font-size="14.00" fill="#000000">created_at :datetime</text>
<text text-anchor="start" x="122.5" y="-203.8" font-family="Times,serif" font-size="14.00" fill="#000000">updated_at :datetime</text>
</g>
<!-- User&#45;&gt;Order -->
<g id="edge7" class="edge">
<title>User&#45;&gt;Order</title>
<path fill="none" stroke="#1f8175" d="M214.5,-187.845C214.5,-176.6515 214.5,-165.206 214.5,-154.1125"/>
<ellipse fill="none" stroke="#1f8175" cx="214.5" cy="-191.9146" rx="4" ry="4"/>
<polygon fill="#1f8175" stroke="#1f8175" points="214.5001,-154.0409 219,-144.0408 214.5,-149.0409 214.5,-144.0409 214.5,-144.0409 214.5,-144.0409 214.5,-149.0409 210,-144.0409 214.5001,-154.0409 214.5001,-154.0409"/>
</g>
<!-- Profile -->
<g id="node5" class="node">
<title>Profile</title>
<path fill="none" stroke="#000000" d="M12,-.5C12,-.5 119,-.5 119,-.5 125,-.5 131,-6.5 131,-12.5 131,-12.5 131,-139.5 131,-139.5 131,-145.5 125,-151.5 119,-151.5 119,-151.5 12,-151.5 12,-151.5 6,-151.5 0,-145.5 0,-139.5 0,-139.5 0,-12.5 0,-12.5 0,-6.5 6,-.5 12,-.5"/>
<text text-anchor="middle" x="65.5" y="-136.3" font-family="Times,serif" font-size="14.00" fill="#000000">Profile</text>
<polyline fill="none" stroke="#000000" points="0,-128.5 131,-128.5 "/>
<text text-anchor="start" x="8" y="-113.3" font-family="Times,serif" font-size="14.00" fill="#000000">id :INTEGER</text>
<text text-anchor="start" x="8" y="-98.3" font-family="Times,serif" font-size="14.00" fill="#000000">name :varchar</text>
<text text-anchor="start" x="8" y="-83.3" font-family="Times,serif" font-size="14.00" fill="#000000">phone :integer</text>
<text text-anchor="start" x="8" y="-68.3" font-family="Times,serif" font-size="14.00" fill="#000000">address :varchar</text>
<text text-anchor="start" x="8" y="-53.3" font-family="Times,serif" font-size="14.00" fill="#000000">created_at :datetime</text>
<text text-anchor="start" x="8" y="-38.3" font-family="Times,serif" font-size="14.00" fill="#000000">updated_at :datetime</text>
<text text-anchor="start" x="8" y="-23.3" font-family="Times,serif" font-size="14.00" fill="#000000">user_id :integer</text>
<text text-anchor="start" x="8" y="-8.3" font-family="Times,serif" font-size="14.00" fill="#000000">avatar :varchar</text>
</g>
<!-- User&#45;&gt;Profile -->
<g id="edge4" class="edge">
<title>User&#45;&gt;Profile</title>
<path fill="none" stroke="#01ac2c" d="M151.9384,-189.4141C144.0487,-179.0622 135.9756,-168.4696 128.0855,-158.1172"/>
<ellipse fill="none" stroke="#01ac2c" cx="154.468" cy="-192.7332" rx="4" ry="4"/>
<ellipse fill="#01ac2c" stroke="#01ac2c" cx="125.6244" cy="-154.8881" rx="4" ry="4"/>
</g>
<!-- User&#45;&gt;Question -->
<g id="edge6" class="edge">
<title>User&#45;&gt;Question</title>
<path fill="none" stroke="#590387" d="M277.0558,-189.4218C288.4522,-174.4687 300.2315,-159.0133 311.2893,-144.5047"/>
<ellipse fill="none" stroke="#590387" cx="274.532" cy="-192.7332" rx="4" ry="4"/>
<polygon fill="#590387" stroke="#590387" points="311.2895,-144.5043 320.9303,-139.2787 314.3204,-140.5276 317.3512,-136.5509 317.3512,-136.5509 317.3512,-136.5509 314.3204,-140.5276 313.7722,-133.8231 311.2895,-144.5043 311.2895,-144.5043"/>
</g>
<!-- User&#45;&gt;Post -->
<g id="edge5" class="edge">
<title>User&#45;&gt;Post</title>
<path fill="none" stroke="#285f5b" d="M317.4723,-191.7801C319.8137,-190.4745 322.1577,-189.2122 324.5,-188 371.6877,-163.5781 393.267,-179.8762 438.5,-152 439.6023,-151.3206 440.7,-150.6213 441.7923,-149.9035"/>
<ellipse fill="none" stroke="#285f5b" cx="313.9262" cy="-193.8237" rx="4" ry="4"/>
<polygon fill="#285f5b" stroke="#285f5b" points="441.886,-149.8373 452.6499,-147.7422 445.9696,-146.9521 450.0532,-144.067 450.0532,-144.067 450.0532,-144.067 445.9696,-146.9521 447.4566,-140.3917 441.886,-149.8373 441.886,-149.8373"/>
</g>
<!-- ApplicationRecord -->
<g id="node6" class="node">
<title>ApplicationRecord</title>
<ellipse fill="none" stroke="#000000" cx="559.5" cy="-467" rx="77.1866" ry="18"/>
<text text-anchor="middle" x="559.5" y="-463.3" font-family="Times,serif" font-size="14.00" fill="#000000">ApplicationRecord</text>
</g>
<!-- AdminUser -->
<g id="node7" class="node">
<title>AdminUser</title>
<path fill="none" stroke="#000000" d="M666.5,-391.5C666.5,-391.5 842.5,-391.5 842.5,-391.5 848.5,-391.5 854.5,-397.5 854.5,-403.5 854.5,-403.5 854.5,-530.5 854.5,-530.5 854.5,-536.5 848.5,-542.5 842.5,-542.5 842.5,-542.5 666.5,-542.5 666.5,-542.5 660.5,-542.5 654.5,-536.5 654.5,-530.5 654.5,-530.5 654.5,-403.5 654.5,-403.5 654.5,-397.5 660.5,-391.5 666.5,-391.5"/>
<text text-anchor="middle" x="754.5" y="-527.3" font-family="Times,serif" font-size="14.00" fill="#000000">AdminUser</text>
<polyline fill="none" stroke="#000000" points="654.5,-519.5 854.5,-519.5 "/>
<text text-anchor="start" x="662.5" y="-504.3" font-family="Times,serif" font-size="14.00" fill="#000000">id :INTEGER</text>
<text text-anchor="start" x="662.5" y="-489.3" font-family="Times,serif" font-size="14.00" fill="#000000">email :varchar</text>
<text text-anchor="start" x="662.5" y="-474.3" font-family="Times,serif" font-size="14.00" fill="#000000">encrypted_password :varchar</text>
<text text-anchor="start" x="662.5" y="-459.3" font-family="Times,serif" font-size="14.00" fill="#000000">reset_password_token :varchar</text>
<text text-anchor="start" x="662.5" y="-444.3" font-family="Times,serif" font-size="14.00" fill="#000000">reset_password_sent_at :datetime</text>
<text text-anchor="start" x="662.5" y="-429.3" font-family="Times,serif" font-size="14.00" fill="#000000">remember_created_at :datetime</text>
<text text-anchor="start" x="662.5" y="-414.3" font-family="Times,serif" font-size="14.00" fill="#000000">created_at :datetime</text>
<text text-anchor="start" x="662.5" y="-399.3" font-family="Times,serif" font-size="14.00" fill="#000000">updated_at :datetime</text>
</g>
<!-- Categorie -->
<g id="node8" class="node">
<title>Categorie</title>
<path fill="none" stroke="#000000" d="M345,-414C345,-414 452,-414 452,-414 458,-414 464,-420 464,-426 464,-426 464,-508 464,-508 464,-514 458,-520 452,-520 452,-520 345,-520 345,-520 339,-520 333,-514 333,-508 333,-508 333,-426 333,-426 333,-420 339,-414 345,-414"/>
<text text-anchor="middle" x="398.5" y="-504.8" font-family="Times,serif" font-size="14.00" fill="#000000">Categorie</text>
<polyline fill="none" stroke="#000000" points="333,-497 464,-497 "/>
<text text-anchor="start" x="341" y="-481.8" font-family="Times,serif" font-size="14.00" fill="#000000">id :INTEGER</text>
<text text-anchor="start" x="341" y="-466.8" font-family="Times,serif" font-size="14.00" fill="#000000">name :varchar</text>
<text text-anchor="start" x="341" y="-451.8" font-family="Times,serif" font-size="14.00" fill="#000000">created_at :datetime</text>
<text text-anchor="start" x="341" y="-436.8" font-family="Times,serif" font-size="14.00" fill="#000000">updated_at :datetime</text>
<text text-anchor="start" x="341" y="-421.8" font-family="Times,serif" font-size="14.00" fill="#000000">photo :varchar</text>
</g>
<!-- Categorie&#45;&gt;Product -->
<g id="edge8" class="edge">
<title>Categorie&#45;&gt;Product</title>
<path fill="none" stroke="#1f47fc" d="M398.5,-405.5682C398.5,-392.6119 398.5,-378.6633 398.5,-364.8328"/>
<ellipse fill="none" stroke="#1f47fc" cx="398.5" cy="-409.837" rx="4" ry="4"/>
<polygon fill="#1f47fc" stroke="#1f47fc" points="398.5001,-364.7989 403,-354.7988 398.5,-359.7989 398.5,-354.7989 398.5,-354.7989 398.5,-354.7989 398.5,-359.7989 394,-354.7989 398.5001,-364.7989 398.5001,-364.7989"/>
</g>
</g>
</svg>
