<?xml version="1.0" encoding="UTF-8" standalone="no"?>
<!DOCTYPE svg PUBLIC "-//W3C//DTD SVG 1.1//EN"
 "http://www.w3.org/Graphics/SVG/1.1/DTD/svg11.dtd">
<!-- Generated by graphviz version 2.40.1 (20161225.0304)
 -->
<!-- Title: models_diagram Pages: 1 -->
<svg width="624pt" height="230pt"
 viewBox="0.00 0.00 624.34 230.00" xmlns="http://www.w3.org/2000/svg" xmlns:xlink="http://www.w3.org/1999/xlink">
<g id="graph0" class="graph" transform="scale(1 1) rotate(0) translate(4 226)">
<title>models_diagram</title>
<polygon fill="transparent" stroke="transparent" points="-4,4 -4,-226 620.3431,-226 620.3431,4 -4,4"/>
<!-- _diagram_info -->
<g id="node1" class="node">
<title>_diagram_info</title>
<text text-anchor="start" x="8" y="-207.6" font-family="Times,serif" font-size="13.00" fill="#000000">Models diagram</text>
<text text-anchor="start" x="8" y="-193.6" font-family="Times,serif" font-size="13.00" fill="#000000">Date: Dec 21 2018 &#45; 12:19</text>
<text text-anchor="start" x="8" y="-179.6" font-family="Times,serif" font-size="13.00" fill="#000000">Migration version: 20181216114206</text>
<text text-anchor="start" x="8" y="-165.6" font-family="Times,serif" font-size="13.00" fill="#000000">Generated by RailRoady 1.5.3</text>
<text text-anchor="start" x="8" y="-151.6" font-family="Times,serif" font-size="13.00" fill="#000000">http://railroady.prestonlee.com</text>
</g>
<!-- AdminUser -->
<g id="node2" class="node">
<title>AdminUser</title>
<ellipse fill="none" stroke="#000000" cx="284" cy="-183" rx="51.9908" ry="18"/>
<text text-anchor="middle" x="284" y="-179.3" font-family="Times,serif" font-size="14.00" fill="#000000">AdminUser</text>
</g>
<!-- Profile -->
<g id="node3" class="node">
<title>Profile</title>
<ellipse fill="none" stroke="#000000" cx="233" cy="-18" rx="34.394" ry="18"/>
<text text-anchor="middle" x="233" y="-14.3" font-family="Times,serif" font-size="14.00" fill="#000000">Profile</text>
</g>
<!-- Post -->
<g id="node4" class="node">
<title>Post</title>
<ellipse fill="none" stroke="#000000" cx="312" cy="-18" rx="27" ry="18"/>
<text text-anchor="middle" x="312" y="-14.3" font-family="Times,serif" font-size="14.00" fill="#000000">Post</text>
</g>
<!-- Categorie -->
<g id="node5" class="node">
<title>Categorie</title>
<ellipse fill="none" stroke="#000000" cx="399" cy="-183" rx="44.6926" ry="18"/>
<text text-anchor="middle" x="399" y="-179.3" font-family="Times,serif" font-size="14.00" fill="#000000">Categorie</text>
</g>
<!-- Product -->
<g id="node9" class="node">
<title>Product</title>
<ellipse fill="none" stroke="#000000" cx="399" cy="-90" rx="38.1938" ry="18"/>
<text text-anchor="middle" x="399" y="-86.3" font-family="Times,serif" font-size="14.00" fill="#000000">Product</text>
</g>
<!-- Categorie&#45;&gt;Product -->
<g id="edge1" class="edge">
<title>Categorie&#45;&gt;Product</title>
<path fill="none" stroke="#4a0fcc" d="M399,-156.4432C399,-144.4479 399,-130.268 399,-118.0949"/>
<ellipse fill="none" stroke="#4a0fcc" cx="399" cy="-160.6262" rx="4" ry="4"/>
<polygon fill="#4a0fcc" stroke="#4a0fcc" points="399.0001,-118.0192 403.5,-108.0191 399,-113.0192 399,-108.0192 399,-108.0192 399,-108.0192 399,-113.0192 394.5,-108.0192 399.0001,-118.0192 399.0001,-118.0192"/>
</g>
<!-- ApplicationRecord -->
<g id="node6" class="node">
<title>ApplicationRecord</title>
<ellipse fill="none" stroke="#000000" cx="539" cy="-183" rx="77.1866" ry="18"/>
<text text-anchor="middle" x="539" y="-179.3" font-family="Times,serif" font-size="14.00" fill="#000000">ApplicationRecord</text>
</g>
<!-- Question -->
<g id="node7" class="node">
<title>Question</title>
<ellipse fill="none" stroke="#000000" cx="399" cy="-18" rx="42.4939" ry="18"/>
<text text-anchor="middle" x="399" y="-14.3" font-family="Times,serif" font-size="14.00" fill="#000000">Question</text>
</g>
<!-- Order -->
<g id="node8" class="node">
<title>Order</title>
<ellipse fill="none" stroke="#000000" cx="490" cy="-18" rx="31.3957" ry="18"/>
<text text-anchor="middle" x="490" y="-14.3" font-family="Times,serif" font-size="14.00" fill="#000000">Order</text>
</g>
<!-- Product&#45;&gt;Post -->
<g id="edge2" class="edge">
<title>Product&#45;&gt;Post</title>
<path fill="none" stroke="#955720" d="M373.3938,-68.8087C361.9323,-59.3233 348.4635,-48.1767 337.0662,-38.7445"/>
<ellipse fill="none" stroke="#955720" cx="376.6103" cy="-71.4706" rx="4" ry="4"/>
<polygon fill="#955720" stroke="#955720" points="336.8956,-38.6033 332.0607,-28.7608 333.0436,-35.4154 329.1916,-32.2276 329.1916,-32.2276 329.1916,-32.2276 333.0436,-35.4154 326.3226,-35.6944 336.8956,-38.6033 336.8956,-38.6033"/>
</g>
<!-- Product&#45;&gt;Question -->
<g id="edge3" class="edge">
<title>Product&#45;&gt;Question</title>
<path fill="none" stroke="#cc78bc" d="M399,-63.8144C399,-58.2775 399,-52.4053 399,-46.7785"/>
<ellipse fill="none" stroke="#cc78bc" cx="399" cy="-67.8314" rx="4" ry="4"/>
<polygon fill="#cc78bc" stroke="#cc78bc" points="399.0001,-46.4133 403.5,-36.4132 399,-41.4133 399,-36.4133 399,-36.4133 399,-36.4133 399,-41.4133 394.5,-36.4133 399.0001,-46.4133 399.0001,-46.4133"/>
</g>
<!-- Product&#45;&gt;Order -->
<g id="edge4" class="edge">
<title>Product&#45;&gt;Order</title>
<path fill="none" stroke="#b533bc" d="M425.2866,-69.2018C437.3195,-59.6813 451.5484,-48.4232 463.5955,-38.8915"/>
<ellipse fill="none" stroke="#b533bc" cx="421.8825" cy="-71.8951" rx="4" ry="4"/>
<polygon fill="#b533bc" stroke="#b533bc" points="463.6912,-38.8158 474.3256,-36.1399 467.6123,-35.7134 471.5334,-32.6109 471.5334,-32.6109 471.5334,-32.6109 467.6123,-35.7134 468.7412,-29.0819 463.6912,-38.8158 463.6912,-38.8158"/>
</g>
<!-- User -->
<g id="node10" class="node">
<title>User</title>
<ellipse fill="none" stroke="#000000" cx="314" cy="-90" rx="27.0966" ry="18"/>
<text text-anchor="middle" x="314" y="-86.3" font-family="Times,serif" font-size="14.00" fill="#000000">User</text>
</g>
<!-- User&#45;&gt;Profile -->
<g id="edge5" class="edge">
<title>User&#45;&gt;Profile</title>
<path fill="none" stroke="#05a139" d="M291.5246,-70.0219C280.6882,-60.3895 267.6889,-48.8346 256.697,-39.064"/>
<ellipse fill="none" stroke="#05a139" cx="294.6188" cy="-72.7723" rx="4" ry="4"/>
<ellipse fill="#05a139" stroke="#05a139" cx="253.4782" cy="-36.2028" rx="4" ry="4"/>
</g>
<!-- User&#45;&gt;Post -->
<g id="edge6" class="edge">
<title>User&#45;&gt;Post</title>
<path fill="none" stroke="#7b1825" d="M313.2726,-63.8144C313.1188,-58.2775 312.9557,-52.4053 312.7994,-46.7785"/>
<ellipse fill="none" stroke="#7b1825" cx="313.3842" cy="-67.8329" rx="4" ry="4"/>
<polygon fill="#7b1825" stroke="#7b1825" points="312.7892,-46.4094 317.0097,-36.2883 312.6504,-41.4113 312.5115,-36.4133 312.5115,-36.4133 312.5115,-36.4133 312.6504,-41.4113 308.0132,-36.5383 312.7892,-46.4094 312.7892,-46.4094"/>
</g>
<!-- User&#45;&gt;Question -->
<g id="edge7" class="edge">
<title>User&#45;&gt;Question</title>
<path fill="none" stroke="#767281" d="M337.0814,-70.4487C347.8742,-61.3066 360.7952,-50.3617 372.0352,-40.8408"/>
<ellipse fill="none" stroke="#767281" cx="333.8455" cy="-73.1897" rx="4" ry="4"/>
<polygon fill="#767281" stroke="#767281" points="372.2376,-40.6694 382.7766,-37.6396 376.0528,-37.4376 379.8681,-34.2059 379.8681,-34.2059 379.8681,-34.2059 376.0528,-37.4376 376.9595,-30.7722 372.2376,-40.6694 372.2376,-40.6694"/>
</g>
<!-- User&#45;&gt;Order -->
<g id="edge8" class="edge">
<title>User&#45;&gt;Order</title>
<path fill="none" stroke="#1d89a6" d="M343.4571,-75.7282C346.3286,-74.4331 349.2106,-73.1702 352,-72 394.7887,-54.0498 407.0381,-53.5317 450,-36 452.0623,-35.1584 454.1756,-34.2742 456.3012,-33.368"/>
<ellipse fill="none" stroke="#1d89a6" cx="339.5835" cy="-77.5144" rx="4" ry="4"/>
<polygon fill="#1d89a6" stroke="#1d89a6" points="456.4147,-33.3185 467.3798,-33.4432 460.9973,-31.3187 465.58,-29.3188 465.58,-29.3188 465.58,-29.3188 460.9973,-31.3187 463.7802,-25.1944 456.4147,-33.3185 456.4147,-33.3185"/>
</g>
</g>
</svg>
