<?xml version="1.0" encoding="UTF-8" standalone="no"?>
<!DOCTYPE svg PUBLIC "-//W3C//DTD SVG 1.1//EN"
 "http://www.w3.org/Graphics/SVG/1.1/DTD/svg11.dtd">
<!-- Generated by graphviz version 2.40.1 (20161225.0304)
 -->
<!-- Title: models_diagram Pages: 1 -->
<svg width="762pt" height="551pt"
 viewBox="0.00 0.00 762.34 551.00" xmlns="http://www.w3.org/2000/svg" xmlns:xlink="http://www.w3.org/1999/xlink">
<g id="graph0" class="graph" transform="scale(1 1) rotate(0) translate(4 547)">
<title>models_diagram</title>
<polygon fill="transparent" stroke="transparent" points="-4,4 -4,-547 758.3431,-547 758.3431,4 -4,4"/>
<!-- _diagram_info -->
<g id="node1" class="node">
<title>_diagram_info</title>
<text text-anchor="start" x="8" y="-491.6" font-family="Times,serif" font-size="13.00" fill="#000000">Models diagram</text>
<text text-anchor="start" x="8" y="-477.6" font-family="Times,serif" font-size="13.00" fill="#000000">Date: Dec 21 2018 &#45; 12:19</text>
<text text-anchor="start" x="8" y="-463.6" font-family="Times,serif" font-size="13.00" fill="#000000">Migration version: 20181216114206</text>
<text text-anchor="start" x="8" y="-449.6" font-family="Times,serif" font-size="13.00" fill="#000000">Generated by RailRoady 1.5.3</text>
<text text-anchor="start" x="8" y="-435.6" font-family="Times,serif" font-size="13.00" fill="#000000">http://railroady.prestonlee.com</text>
</g>
<!-- AdminUser -->
<g id="node2" class="node">
<title>AdminUser</title>
<path fill="none" stroke="#000000" d="M244,-391.5C244,-391.5 420,-391.5 420,-391.5 426,-391.5 432,-397.5 432,-403.5 432,-403.5 432,-530.5 432,-530.5 432,-536.5 426,-542.5 420,-542.5 420,-542.5 244,-542.5 244,-542.5 238,-542.5 232,-536.5 232,-530.5 232,-530.5 232,-403.5 232,-403.5 232,-397.5 238,-391.5 244,-391.5"/>
<text text-anchor="middle" x="332" y="-527.3" font-family="Times,serif" font-size="14.00" fill="#000000">AdminUser</text>
<polyline fill="none" stroke="#000000" points="232,-519.5 432,-519.5 "/>
<text text-anchor="start" x="240" y="-504.3" font-family="Times,serif" font-size="14.00" fill="#000000">id :INTEGER</text>
<text text-anchor="start" x="240" y="-489.3" font-family="Times,serif" font-size="14.00" fill="#000000">email :varchar</text>
<text text-anchor="start" x="240" y="-474.3" font-family="Times,serif" font-size="14.00" fill="#000000">encrypted_password :varchar</text>
<text text-anchor="start" x="240" y="-459.3" font-family="Times,serif" font-size="14.00" fill="#000000">reset_password_token :varchar</text>
<text text-anchor="start" x="240" y="-444.3" font-family="Times,serif" font-size="14.00" fill="#000000">reset_password_sent_at :datetime</text>
<text text-anchor="start" x="240" y="-429.3" font-family="Times,serif" font-size="14.00" fill="#000000">remember_created_at :datetime</text>
<text text-anchor="start" x="240" y="-414.3" font-family="Times,serif" font-size="14.00" fill="#000000">created_at :datetime</text>
<text text-anchor="start" x="240" y="-399.3" font-family="Times,serif" font-size="14.00" fill="#000000">updated_at :datetime</text>
</g>
<!-- Profile -->
<g id="node3" class="node">
<title>Profile</title>
<path fill="none" stroke="#000000" d="M129.5,-.5C129.5,-.5 236.5,-.5 236.5,-.5 242.5,-.5 248.5,-6.5 248.5,-12.5 248.5,-12.5 248.5,-139.5 248.5,-139.5 248.5,-145.5 242.5,-151.5 236.5,-151.5 236.5,-151.5 129.5,-151.5 129.5,-151.5 123.5,-151.5 117.5,-145.5 117.5,-139.5 117.5,-139.5 117.5,-12.5 117.5,-12.5 117.5,-6.5 123.5,-.5 129.5,-.5"/>
<text text-anchor="middle" x="183" y="-136.3" font-family="Times,serif" font-size="14.00" fill="#000000">Profile</text>
<polyline fill="none" stroke="#000000" points="117.5,-128.5 248.5,-128.5 "/>
<text text-anchor="start" x="125.5" y="-113.3" font-family="Times,serif" font-size="14.00" fill="#000000">id :integer</text>
<text text-anchor="start" x="125.5" y="-98.3" font-family="Times,serif" font-size="14.00" fill="#000000">name :varchar</text>
<text text-anchor="start" x="125.5" y="-83.3" font-family="Times,serif" font-size="14.00" fill="#000000">phone :integer</text>
<text text-anchor="start" x="125.5" y="-68.3" font-family="Times,serif" font-size="14.00" fill="#000000">address :varchar</text>
<text text-anchor="start" x="125.5" y="-53.3" font-family="Times,serif" font-size="14.00" fill="#000000">created_at :datetime</text>
<text text-anchor="start" x="125.5" y="-38.3" font-family="Times,serif" font-size="14.00" fill="#000000">updated_at :datetime</text>
<text text-anchor="start" x="125.5" y="-23.3" font-family="Times,serif" font-size="14.00" fill="#000000">user_id :integer</text>
<text text-anchor="start" x="125.5" y="-8.3" font-family="Times,serif" font-size="14.00" fill="#000000">avatar :varchar</text>
</g>
<!-- Post -->
<g id="node4" class="node">
<title>Post</title>
<path fill="none" stroke="#000000" d="M278.5,-8C278.5,-8 385.5,-8 385.5,-8 391.5,-8 397.5,-14 397.5,-20 397.5,-20 397.5,-132 397.5,-132 397.5,-138 391.5,-144 385.5,-144 385.5,-144 278.5,-144 278.5,-144 272.5,-144 266.5,-138 266.5,-132 266.5,-132 266.5,-20 266.5,-20 266.5,-14 272.5,-8 278.5,-8"/>
<text text-anchor="middle" x="332" y="-128.8" font-family="Times,serif" font-size="14.00" fill="#000000">Post</text>
<polyline fill="none" stroke="#000000" points="266.5,-121 397.5,-121 "/>
<text text-anchor="start" x="274.5" y="-105.8" font-family="Times,serif" font-size="14.00" fill="#000000">id :INTEGER</text>
<text text-anchor="start" x="274.5" y="-90.8" font-family="Times,serif" font-size="14.00" fill="#000000">body :varchar</text>
<text text-anchor="start" x="274.5" y="-75.8" font-family="Times,serif" font-size="14.00" fill="#000000">user_id :integer</text>
<text text-anchor="start" x="274.5" y="-60.8" font-family="Times,serif" font-size="14.00" fill="#000000">product_id :integer</text>
<text text-anchor="start" x="274.5" y="-45.8" font-family="Times,serif" font-size="14.00" fill="#000000">star :integer</text>
<text text-anchor="start" x="274.5" y="-30.8" font-family="Times,serif" font-size="14.00" fill="#000000">created_at :datetime</text>
<text text-anchor="start" x="274.5" y="-15.8" font-family="Times,serif" font-size="14.00" fill="#000000">updated_at :datetime</text>
</g>
<!-- Categorie -->
<g id="node5" class="node">
<title>Categorie</title>
<path fill="none" stroke="#000000" d="M462.5,-414C462.5,-414 569.5,-414 569.5,-414 575.5,-414 581.5,-420 581.5,-426 581.5,-426 581.5,-508 581.5,-508 581.5,-514 575.5,-520 569.5,-520 569.5,-520 462.5,-520 462.5,-520 456.5,-520 450.5,-514 450.5,-508 450.5,-508 450.5,-426 450.5,-426 450.5,-420 456.5,-414 462.5,-414"/>
<text text-anchor="middle" x="516" y="-504.8" font-family="Times,serif" font-size="14.00" fill="#000000">Categorie</text>
<polyline fill="none" stroke="#000000" points="450.5,-497 581.5,-497 "/>
<text text-anchor="start" x="458.5" y="-481.8" font-family="Times,serif" font-size="14.00" fill="#000000">id :INTEGER</text>
<text text-anchor="start" x="458.5" y="-466.8" font-family="Times,serif" font-size="14.00" fill="#000000">name :varchar</text>
<text text-anchor="start" x="458.5" y="-451.8" font-family="Times,serif" font-size="14.00" fill="#000000">created_at :datetime</text>
<text text-anchor="start" x="458.5" y="-436.8" font-family="Times,serif" font-size="14.00" fill="#000000">updated_at :datetime</text>
<text text-anchor="start" x="458.5" y="-421.8" font-family="Times,serif" font-size="14.00" fill="#000000">photo :varchar</text>
</g>
<!-- Product -->
<g id="node9" class="node">
<title>Product</title>
<path fill="none" stroke="#000000" d="M462.5,-188.5C462.5,-188.5 569.5,-188.5 569.5,-188.5 575.5,-188.5 581.5,-194.5 581.5,-200.5 581.5,-200.5 581.5,-342.5 581.5,-342.5 581.5,-348.5 575.5,-354.5 569.5,-354.5 569.5,-354.5 462.5,-354.5 462.5,-354.5 456.5,-354.5 450.5,-348.5 450.5,-342.5 450.5,-342.5 450.5,-200.5 450.5,-200.5 450.5,-194.5 456.5,-188.5 462.5,-188.5"/>
<text text-anchor="middle" x="516" y="-339.3" font-family="Times,serif" font-size="14.00" fill="#000000">Product</text>
<polyline fill="none" stroke="#000000" points="450.5,-331.5 581.5,-331.5 "/>
<text text-anchor="start" x="458.5" y="-316.3" font-family="Times,serif" font-size="14.00" fill="#000000">id :INTEGER</text>
<text text-anchor="start" x="458.5" y="-301.3" font-family="Times,serif" font-size="14.00" fill="#000000">name :varchar</text>
<text text-anchor="start" x="458.5" y="-286.3" font-family="Times,serif" font-size="14.00" fill="#000000">description :varchar</text>
<text text-anchor="start" x="458.5" y="-271.3" font-family="Times,serif" font-size="14.00" fill="#000000">categorie_id :integer</text>
<text text-anchor="start" x="458.5" y="-256.3" font-family="Times,serif" font-size="14.00" fill="#000000">price :float</text>
<text text-anchor="start" x="458.5" y="-241.3" font-family="Times,serif" font-size="14.00" fill="#000000">pcount :integer</text>
<text text-anchor="start" x="458.5" y="-226.3" font-family="Times,serif" font-size="14.00" fill="#000000">created_at :datetime</text>
<text text-anchor="start" x="458.5" y="-211.3" font-family="Times,serif" font-size="14.00" fill="#000000">updated_at :datetime</text>
<text text-anchor="start" x="458.5" y="-196.3" font-family="Times,serif" font-size="14.00" fill="#000000">images :varchar</text>
</g>
<!-- Categorie&#45;&gt;Product -->
<g id="edge1" class="edge">
<title>Categorie&#45;&gt;Product</title>
<path fill="none" stroke="#93a16e" d="M516,-405.5682C516,-392.6119 516,-378.6633 516,-364.8328"/>
<ellipse fill="none" stroke="#93a16e" cx="516" cy="-409.837" rx="4" ry="4"/>
<polygon fill="#93a16e" stroke="#93a16e" points="516.0001,-364.7989 520.5,-354.7988 516,-359.7989 516,-354.7989 516,-354.7989 516,-354.7989 516,-359.7989 511.5,-354.7989 516.0001,-364.7989 516.0001,-364.7989"/>
</g>
<!-- ApplicationRecord -->
<g id="node6" class="node">
<title>ApplicationRecord</title>
<ellipse fill="none" stroke="#000000" cx="677" cy="-467" rx="77.1866" ry="18"/>
<text text-anchor="middle" x="677" y="-463.3" font-family="Times,serif" font-size="14.00" fill="#000000">ApplicationRecord</text>
</g>
<!-- Question -->
<g id="node7" class="node">
<title>Question</title>
<path fill="none" stroke="#000000" d="M427.5,-15.5C427.5,-15.5 534.5,-15.5 534.5,-15.5 540.5,-15.5 546.5,-21.5 546.5,-27.5 546.5,-27.5 546.5,-124.5 546.5,-124.5 546.5,-130.5 540.5,-136.5 534.5,-136.5 534.5,-136.5 427.5,-136.5 427.5,-136.5 421.5,-136.5 415.5,-130.5 415.5,-124.5 415.5,-124.5 415.5,-27.5 415.5,-27.5 415.5,-21.5 421.5,-15.5 427.5,-15.5"/>
<text text-anchor="middle" x="481" y="-121.3" font-family="Times,serif" font-size="14.00" fill="#000000">Question</text>
<polyline fill="none" stroke="#000000" points="415.5,-113.5 546.5,-113.5 "/>
<text text-anchor="start" x="423.5" y="-98.3" font-family="Times,serif" font-size="14.00" fill="#000000">id :INTEGER</text>
<text text-anchor="start" x="423.5" y="-83.3" font-family="Times,serif" font-size="14.00" fill="#000000">body :varchar</text>
<text text-anchor="start" x="423.5" y="-68.3" font-family="Times,serif" font-size="14.00" fill="#000000">user_id :integer</text>
<text text-anchor="start" x="423.5" y="-53.3" font-family="Times,serif" font-size="14.00" fill="#000000">product_id :integer</text>
<text text-anchor="start" x="423.5" y="-38.3" font-family="Times,serif" font-size="14.00" fill="#000000">created_at :datetime</text>
<text text-anchor="start" x="423.5" y="-23.3" font-family="Times,serif" font-size="14.00" fill="#000000">updated_at :datetime</text>
</g>
<!-- Order -->
<g id="node8" class="node">
<title>Order</title>
<path fill="none" stroke="#000000" d="M576.5,-8C576.5,-8 683.5,-8 683.5,-8 689.5,-8 695.5,-14 695.5,-20 695.5,-20 695.5,-132 695.5,-132 695.5,-138 689.5,-144 683.5,-144 683.5,-144 576.5,-144 576.5,-144 570.5,-144 564.5,-138 564.5,-132 564.5,-132 564.5,-20 564.5,-20 564.5,-14 570.5,-8 576.5,-8"/>
<text text-anchor="middle" x="630" y="-128.8" font-family="Times,serif" font-size="14.00" fill="#000000">Order</text>
<polyline fill="none" stroke="#000000" points="564.5,-121 695.5,-121 "/>
<text text-anchor="start" x="572.5" y="-105.8" font-family="Times,serif" font-size="14.00" fill="#000000">id :INTEGER</text>
<text text-anchor="start" x="572.5" y="-90.8" font-family="Times,serif" font-size="14.00" fill="#000000">product_id :integer</text>
<text text-anchor="start" x="572.5" y="-75.8" font-family="Times,serif" font-size="14.00" fill="#000000">user_id :integer</text>
<text text-anchor="start" x="572.5" y="-60.8" font-family="Times,serif" font-size="14.00" fill="#000000">ordercount :float</text>
<text text-anchor="start" x="572.5" y="-45.8" font-family="Times,serif" font-size="14.00" fill="#000000">comment :varchar</text>
<text text-anchor="start" x="572.5" y="-30.8" font-family="Times,serif" font-size="14.00" fill="#000000">created_at :datetime</text>
<text text-anchor="start" x="572.5" y="-15.8" font-family="Times,serif" font-size="14.00" fill="#000000">updated_at :datetime</text>
</g>
<!-- Product&#45;&gt;Post -->
<g id="edge2" class="edge">
<title>Product&#45;&gt;Post</title>
<path fill="none" stroke="#cb9549" d="M444.7555,-192.0294C443.4961,-190.674 442.2435,-189.3299 441,-188 439.8808,-186.803 424.0757,-170.5514 404.8311,-150.781"/>
<ellipse fill="none" stroke="#cb9549" cx="447.5974" cy="-195.1005" rx="4" ry="4"/>
<polygon fill="#cb9549" stroke="#cb9549" points="404.5817,-150.5248 400.8307,-140.2204 401.094,-146.9421 397.6062,-143.3594 397.6062,-143.3594 397.6062,-143.3594 401.094,-146.9421 394.3818,-146.4983 404.5817,-150.5248 404.5817,-150.5248"/>
</g>
<!-- Product&#45;&gt;Question -->
<g id="edge3" class="edge">
<title>Product&#45;&gt;Question</title>
<path fill="none" stroke="#79d0cc" d="M499.6429,-180.1342C497.6195,-168.8316 495.5755,-157.4148 493.62,-146.4915"/>
<ellipse fill="none" stroke="#79d0cc" cx="500.4012" cy="-184.3695" rx="4" ry="4"/>
<polygon fill="#79d0cc" stroke="#79d0cc" points="493.6143,-146.4596 496.2816,-135.8231 492.7332,-141.5379 491.852,-136.6161 491.852,-136.6161 491.852,-136.6161 492.7332,-141.5379 487.4224,-137.4092 493.6143,-146.4596 493.6143,-146.4596"/>
</g>
<!-- Product&#45;&gt;Order -->
<g id="edge4" class="edge">
<title>Product&#45;&gt;Order</title>
<path fill="none" stroke="#4f71b5" d="M568.5616,-181.3615C574.1041,-171.8566 579.7028,-162.2552 585.1466,-152.9196"/>
<ellipse fill="none" stroke="#4f71b5" cx="566.5265" cy="-184.8515" rx="4" ry="4"/>
<polygon fill="#4f71b5" stroke="#4f71b5" points="585.2741,-152.7009 594.1989,-146.3291 587.7928,-148.3816 590.3115,-144.0623 590.3115,-144.0623 590.3115,-144.0623 587.7928,-148.3816 586.4241,-141.7955 585.2741,-152.7009 585.2741,-152.7009"/>
</g>
<!-- User -->
<g id="node10" class="node">
<title>User</title>
<path fill="none" stroke="#000000" d="M244,-196C244,-196 420,-196 420,-196 426,-196 432,-202 432,-208 432,-208 432,-335 432,-335 432,-341 426,-347 420,-347 420,-347 244,-347 244,-347 238,-347 232,-341 232,-335 232,-335 232,-208 232,-208 232,-202 238,-196 244,-196"/>
<text text-anchor="middle" x="332" y="-331.8" font-family="Times,serif" font-size="14.00" fill="#000000">User</text>
<polyline fill="none" stroke="#000000" points="232,-324 432,-324 "/>
<text text-anchor="start" x="240" y="-308.8" font-family="Times,serif" font-size="14.00" fill="#000000">id :INTEGER</text>
<text text-anchor="start" x="240" y="-293.8" font-family="Times,serif" font-size="14.00" fill="#000000">email :varchar</text>
<text text-anchor="start" x="240" y="-278.8" font-family="Times,serif" font-size="14.00" fill="#000000">encrypted_password :varchar</text>
<text text-anchor="start" x="240" y="-263.8" font-family="Times,serif" font-size="14.00" fill="#000000">reset_password_token :varchar</text>
<text text-anchor="start" x="240" y="-248.8" font-family="Times,serif" font-size="14.00" fill="#000000">reset_password_sent_at :datetime</text>
<text text-anchor="start" x="240" y="-233.8" font-family="Times,serif" font-size="14.00" fill="#000000">remember_created_at :datetime</text>
<text text-anchor="start" x="240" y="-218.8" font-family="Times,serif" font-size="14.00" fill="#000000">created_at :datetime</text>
<text text-anchor="start" x="240" y="-203.8" font-family="Times,serif" font-size="14.00" fill="#000000">updated_at :datetime</text>
</g>
<!-- User&#45;&gt;Profile -->
<g id="edge5" class="edge">
<title>User&#45;&gt;Profile</title>
<path fill="none" stroke="#3d2ed2" d="M269.4384,-189.4141C261.5487,-179.0622 253.4756,-168.4696 245.5855,-158.1172"/>
<ellipse fill="none" stroke="#3d2ed2" cx="271.968" cy="-192.7332" rx="4" ry="4"/>
<ellipse fill="#3d2ed2" stroke="#3d2ed2" cx="243.1244" cy="-154.8881" rx="4" ry="4"/>
</g>
<!-- User&#45;&gt;Post -->
<g id="edge6" class="edge">
<title>User&#45;&gt;Post</title>
<path fill="none" stroke="#35e4c4" d="M332,-187.845C332,-176.6515 332,-165.206 332,-154.1125"/>
<ellipse fill="none" stroke="#35e4c4" cx="332" cy="-191.9146" rx="4" ry="4"/>
<polygon fill="#35e4c4" stroke="#35e4c4" points="332.0001,-154.0409 336.5,-144.0408 332,-149.0409 332,-144.0409 332,-144.0409 332,-144.0409 332,-149.0409 327.5,-144.0409 332.0001,-154.0409 332.0001,-154.0409"/>
</g>
<!-- User&#45;&gt;Question -->
<g id="edge7" class="edge">
<title>User&#45;&gt;Question</title>
<path fill="none" stroke="#f83f0c" d="M394.5558,-189.4218C405.9522,-174.4687 417.7315,-159.0133 428.7893,-144.5047"/>
<ellipse fill="none" stroke="#f83f0c" cx="392.032" cy="-192.7332" rx="4" ry="4"/>
<polygon fill="#f83f0c" stroke="#f83f0c" points="428.7895,-144.5043 438.4303,-139.2787 431.8204,-140.5276 434.8512,-136.5509 434.8512,-136.5509 434.8512,-136.5509 431.8204,-140.5276 431.2722,-133.8231 428.7895,-144.5043 428.7895,-144.5043"/>
</g>
<!-- User&#45;&gt;Order -->
<g id="edge8" class="edge">
<title>User&#45;&gt;Order</title>
<path fill="none" stroke="#50aa5d" d="M433.8593,-191.8559C436.2377,-190.5225 438.6195,-189.2349 441,-188 488.5408,-163.338 510.371,-180.0417 556,-152 557.1032,-151.322 558.2016,-150.624 559.2947,-149.9074"/>
<ellipse fill="none" stroke="#50aa5d" cx="430.1992" cy="-193.9789" rx="4" ry="4"/>
<polygon fill="#50aa5d" stroke="#50aa5d" points="559.388,-149.8417 570.1538,-147.7566 563.4743,-146.9603 567.5606,-144.0789 567.5606,-144.0789 567.5606,-144.0789 563.4743,-146.9603 564.9674,-140.4013 559.388,-149.8417 559.388,-149.8417"/>
</g>
</g>
</svg>
